# xmcd CD database file
#
# Track frame offsets:
#	150
#	14989
#	32661
#	48375
#	61061
#	73936
#	88320
#	105424
#	121595
#	137412
#	155260
#	169282
#	183111
#	204482
#	217320
#	233741
#	248035
#	261520
#	275329
#	293558
#	307766
#	324033
#
# Disc length: 4328 seconds
#
# Revision: 0
# Processed by: cddbd v1.5.1PL0 Copyright (c) Steve Scherf et al.
# Submitted via: CDex 1.51
#
DISCID=3510e616
DTITLE=West End Jazz Band - Louder and Funnier
DYEAR=2003
DGENRE=Jazz
TTITLE0=Do Shuffle
TTITLE1=Gee, It must be love
TTITLE2=Third rail
TTITLE3='Round My Heart
TTITLE4=Hallucinations
TTITLE5=There ain't no land like dixieland
TTITLE6=Stampede
TTITLE7=Laughing at life
TTITLE8=Roodles
TTITLE9=Moanin' for You
TTITLE10=Persian Rug
TTITLE11=How I'll Miss You (When the Summer Is Gone)
TTITLE12=Sugar Babe
TTITLE13=Postage Stomp
TTITLE14=I May Be Wrong
TTITLE15=Louder and Funnier
TTITLE16=Baby Your Mother
TTITLE17=Skinner's Sock
TTITLE18=Coffee In the Morning and Kisses in the Night
TTITLE19=And Especially You
TTITLE20=Tomorrow Mornin'
TTITLE21=End
EXTD=YEAR: 2003
EXTT0=
EXTT1=
EXTT2=
EXTT3=
EXTT4=
EXTT5=
EXTT6=
EXTT7=
EXTT8=
EXTT9=
EXTT10=
EXTT11=
EXTT12=
EXTT13=
EXTT14=
EXTT15=
EXTT16=
EXTT17=
EXTT18=
EXTT19=
EXTT20=
EXTT21=
PLAYORDER=
